<svg preserveAspectRatio="none" width="100%" height="100%" overflow="visible" style="display: block;" viewBox="0 0 16 15" fill="none" xmlns="http://www.w3.org/2000/svg">
<g id="huggingface_logo-noborder 2" clip-path="url(#clip0_0_1065)">
<path id="Vector" d="M7.95116 13.0398C9.50337 13.0398 10.992 12.4157 12.0896 11.3049C13.1872 10.194 13.8038 8.68743 13.8038 7.11648C13.8038 5.54552 13.1872 4.03891 12.0896 2.92807C10.992 1.81724 9.50337 1.19318 7.95116 1.19318C6.39894 1.19318 4.9103 1.81724 3.81272 2.92807C2.71514 4.03891 2.09853 5.54552 2.09853 7.11648C2.09853 8.68743 2.71514 10.194 3.81272 11.3049C4.9103 12.4157 6.39894 13.0398 7.95116 13.0398Z" fill="var(--fill-0, #FFD21E)"/>
<path id="Vector_2" d="M13.8038 7.11648C13.8038 5.54552 13.1872 4.03891 12.0896 2.92807C10.992 1.81724 9.50337 1.19318 7.95116 1.19318C6.39894 1.19318 4.9103 1.81724 3.81272 2.92807C2.71514 4.03891 2.09853 5.54552 2.09853 7.11648C2.09853 8.68743 2.71514 10.194 3.81272 11.3049C4.9103 12.4157 6.39894 13.0398 7.95116 13.0398C9.50337 13.0398 10.992 12.4157 12.0896 11.3049C13.1872 10.194 13.8038 8.68743 13.8038 7.11648ZM1.42484 7.11648C1.42484 6.24908 1.59365 5.39018 1.92163 4.58881C2.24961 3.78744 2.73033 3.0593 3.33636 2.44596C3.94238 1.83262 4.66184 1.34609 5.45364 1.01415C6.24545 0.68221 7.09411 0.511364 7.95116 0.511364C8.80821 0.511364 9.65686 0.68221 10.4487 1.01415C11.2405 1.34609 11.9599 1.83262 12.566 2.44596C13.172 3.0593 13.6527 3.78744 13.9807 4.58881C14.3087 5.39018 14.4775 6.24908 14.4775 7.11648C14.4775 8.86826 13.7899 10.5483 12.566 11.787C11.342 13.0257 9.68204 13.7216 7.95116 13.7216C6.22027 13.7216 4.56028 13.0257 3.33636 11.787C2.11243 10.5483 1.42484 8.86826 1.42484 7.11648Z" fill="var(--fill-0, #FF9D0B)"/>
<path id="Vector_3" d="M9.85263 5.50568C10.0682 5.58068 10.1524 6.02727 10.3697 5.91136C10.5168 5.83231 10.6374 5.71088 10.7164 5.56243C10.7953 5.41398 10.8289 5.24518 10.8131 5.07737C10.7972 4.90956 10.7325 4.75028 10.6272 4.61969C10.5219 4.48909 10.3806 4.39304 10.2214 4.34368C10.0621 4.29432 9.89194 4.29388 9.73243 4.3424C9.57291 4.39091 9.43119 4.48622 9.3252 4.61626C9.2192 4.7463 9.1537 4.90523 9.13696 5.07296C9.12022 5.24068 9.153 5.40966 9.23116 5.55852C9.3339 5.75455 9.66063 5.4358 9.85432 5.50398L9.85263 5.50568ZM5.88632 5.50568C5.67074 5.58068 5.58484 6.02727 5.36926 5.91136C5.22215 5.83231 5.1015 5.71088 5.02258 5.56243C4.94365 5.41398 4.91 5.24518 4.92588 5.07737C4.94176 4.90956 5.00645 4.75028 5.11177 4.61969C5.2171 4.48909 5.35832 4.39304 5.51759 4.34368C5.67685 4.29432 5.847 4.29388 6.00652 4.3424C6.16604 4.39091 6.30776 4.48622 6.41375 4.61626C6.51974 4.7463 6.58525 4.90523 6.60199 5.07296C6.61873 5.24068 6.58595 5.40966 6.50779 5.55852C6.40505 5.75455 6.07663 5.4358 5.88463 5.50398L5.88632 5.50568Z" fill="var(--fill-0, #3A3B45)"/>
<path id="Vector_4" d="M7.90905 9.59489C9.56463 9.59489 10.0985 8.1017 10.0985 7.33466C10.0985 6.9358 9.8341 7.06193 9.40968 7.27329C9.01726 7.46932 8.49011 7.74034 7.91074 7.74034C6.69979 7.74034 5.72126 6.56761 5.72126 7.33466C5.72126 8.1017 6.25347 9.59489 7.91074 9.59489H7.90905Z" fill="var(--fill-0, #FF323D)"/>
<path id="Vector_5" fill-rule="evenodd" clip-rule="evenodd" d="M6.64084 9.20455C6.72971 9.02177 6.85484 8.85948 7.00841 8.7278C7.16199 8.59613 7.34073 8.49788 7.53347 8.4392C7.60084 8.41875 7.66989 8.53636 7.74232 8.65739C7.80968 8.7733 7.88042 8.89091 7.95116 8.89091C8.02695 8.89091 8.10274 8.775 8.17516 8.6608C8.25095 8.54148 8.32505 8.42557 8.39747 8.44773C8.75928 8.56397 9.06162 8.81917 9.23958 9.15852C9.86779 8.65739 10.0985 7.8392 10.0985 7.33466C10.0985 6.9358 9.8341 7.06193 9.40968 7.27329L9.3861 7.28523C8.99705 7.48125 8.47832 7.74034 7.90905 7.74034C7.33979 7.74034 6.82274 7.48125 6.432 7.28523C5.9941 7.06534 5.71958 6.92727 5.71958 7.33466C5.71958 7.85455 5.96547 8.70852 6.64084 9.20455Z" fill="var(--fill-0, #3A3B45)"/>
<path id="Vector_6" d="M11.9091 6.30682C12.0542 6.30682 12.1934 6.24845 12.2961 6.14456C12.3988 6.04067 12.4564 5.89976 12.4564 5.75284C12.4564 5.60592 12.3988 5.46501 12.2961 5.36112C12.1934 5.25723 12.0542 5.19886 11.9091 5.19886C11.7639 5.19886 11.6247 5.25723 11.522 5.36112C11.4194 5.46501 11.3617 5.60592 11.3617 5.75284C11.3617 5.89976 11.4194 6.04067 11.522 6.14456C11.6247 6.24845 11.7639 6.30682 11.9091 6.30682ZM4.07747 6.30682C4.22264 6.30682 4.36187 6.24845 4.46452 6.14456C4.56717 6.04067 4.62484 5.89976 4.62484 5.75284C4.62484 5.60592 4.56717 5.46501 4.46452 5.36112C4.36187 5.25723 4.22264 5.19886 4.07747 5.19886C3.9323 5.19886 3.79308 5.25723 3.69043 5.36112C3.58777 5.46501 3.53011 5.60592 3.53011 5.75284C3.53011 5.89976 3.58777 6.04067 3.69043 6.14456C3.79308 6.24845 3.9323 6.30682 4.07747 6.30682ZM2.95074 8.18182C2.67789 8.18182 2.43537 8.29432 2.26526 8.50057C2.12021 8.6819 2.04113 8.90817 2.04126 9.14148C1.93522 9.1092 1.82525 9.09199 1.71453 9.09034C1.45347 9.09034 1.21768 9.19091 1.05095 9.3733C0.902192 9.52963 0.808403 9.73117 0.784053 9.94681C0.759703 10.1624 0.806144 10.3802 0.916211 10.5665C0.767156 10.6896 0.661411 10.8582 0.614737 11.0472C0.574316 11.2006 0.533895 11.5244 0.749474 11.8551C0.668659 11.9809 0.620569 12.1252 0.609674 12.2749C0.598779 12.4245 0.625433 12.5744 0.687158 12.7108C0.858947 13.1062 1.28842 13.4165 2.12211 13.7506C2.63916 13.9585 3.11411 14.0915 3.11747 14.0932C3.71745 14.2614 4.33587 14.353 4.95832 14.3659C5.94526 14.3659 6.65095 14.0591 7.05684 13.4557C7.71032 12.4858 7.61768 11.5977 6.77053 10.742C6.304 10.2682 5.99242 9.57102 5.92842 9.41761C5.79705 8.9642 5.45011 8.45966 4.87579 8.45966C4.723 8.4621 4.57299 8.50143 4.43824 8.57436C4.30349 8.64729 4.18789 8.75172 4.10105 8.87898C3.93263 8.6642 3.76758 8.49545 3.61937 8.3983C3.42159 8.26279 3.18951 8.18765 2.95074 8.18182ZM2.95074 8.86364C3.03663 8.86364 3.14274 8.90114 3.25726 8.97443C3.61768 9.20625 4.3099 10.4114 4.56421 10.8801C4.64842 11.0369 4.79495 11.1034 4.92463 11.1034C5.18568 11.1034 5.38779 10.8426 4.94989 10.5102C4.28968 10.0108 4.52042 9.19432 4.83537 9.14489C4.84884 9.14148 4.864 9.14148 4.87579 9.14148C5.16211 9.14148 5.28842 9.64091 5.28842 9.64091C5.28842 9.64091 5.65895 10.5818 6.29558 11.2261C6.93053 11.8688 6.96421 12.3852 6.50105 13.0722C6.18442 13.5409 5.57979 13.6824 4.95832 13.6824C4.31663 13.6824 3.65642 13.529 3.28758 13.4335C3.26905 13.4284 1.02232 12.7858 1.30695 12.2403C1.35411 12.1483 1.43326 12.1108 1.53263 12.1108C1.93347 12.1108 2.66105 12.7142 2.976 12.7142C3.04505 12.7142 3.09389 12.6852 3.11579 12.6119C3.24884 12.1261 1.08463 11.9216 1.26653 11.2193C1.30021 11.0949 1.38611 11.0455 1.50905 11.0455C2.03789 11.0455 3.22695 11.9881 3.47621 11.9881C3.49474 11.9881 3.50989 11.983 3.51663 11.971C3.64126 11.7665 3.57221 11.6233 2.69137 11.0847C1.81389 10.546 1.19579 10.2222 1.54611 9.83523C1.58653 9.79091 1.64379 9.77045 1.71453 9.77045C2.24842 9.77045 3.5099 10.933 3.5099 10.933C3.5099 10.933 3.85011 11.2909 4.05726 11.2909C4.10442 11.2909 4.14484 11.2739 4.17179 11.2261C4.31663 10.9773 2.81432 9.825 2.73011 9.34943C2.67284 9.02557 2.77053 8.86364 2.95074 8.86364Z" fill="var(--fill-0, #FF9D0B)"/>
<path id="Vector_7" d="M6.50105 13.0722C6.96421 12.3835 6.93053 11.867 6.29558 11.2244C5.65895 10.5818 5.28842 9.6392 5.28842 9.6392C5.28842 9.6392 5.15032 9.09375 4.83537 9.14489C4.52042 9.19602 4.28968 10.0108 4.94989 10.5102C5.60842 11.0097 4.81853 11.3489 4.56421 10.8801C4.31158 10.4114 3.61768 9.20625 3.25726 8.97443C2.89853 8.74432 2.64589 8.87216 2.7301 9.34943C2.81432 9.825 4.31832 10.9773 4.17179 11.2244C4.02526 11.475 3.50989 10.933 3.50989 10.933C3.50989 10.933 1.89811 9.4483 1.54611 9.83523C1.19579 10.2222 1.81389 10.546 2.69137 11.0847C3.57221 11.6233 3.64126 11.7665 3.51663 11.971C3.39032 12.1756 1.44842 10.517 1.26653 11.221C1.08463 11.9216 3.24884 12.1244 3.11579 12.6102C2.98105 13.096 1.58989 11.6932 1.30695 12.2386C1.02063 12.7858 3.26905 13.4284 3.28758 13.4335C4.01179 13.6244 5.856 14.0284 6.50105 13.0722Z" fill="var(--fill-0, #FFD21E)"/>
<path id="Vector_8" d="M13.0358 8.18182C13.3086 8.18182 13.5528 8.29432 13.7213 8.50057C13.8663 8.6819 13.9454 8.90817 13.9453 9.14148C14.0519 9.10905 14.1624 9.09183 14.2737 9.09034C14.5347 9.09034 14.7705 9.19091 14.9373 9.3733C15.086 9.52963 15.1798 9.73117 15.2042 9.94681C15.2285 10.1624 15.1821 10.3802 15.072 10.5665C15.2204 10.6899 15.3256 10.8585 15.3718 11.0472C15.4122 11.2006 15.4526 11.5244 15.2371 11.8551C15.3179 11.9809 15.366 12.1252 15.3769 12.2749C15.3877 12.4245 15.3611 12.5744 15.2994 12.7108C15.1276 13.1062 14.6981 13.4165 13.8661 13.7506C13.3474 13.9585 12.8724 14.0915 12.8691 14.0932C12.2691 14.2614 11.6507 14.353 11.0282 14.3659C10.0413 14.3659 9.33558 14.0591 8.92968 13.4557C8.27621 12.4858 8.36884 11.5977 9.216 10.742C9.68421 10.2682 9.99579 9.57102 10.0598 9.41761C10.1912 8.9642 10.5364 8.45966 11.1107 8.45966C11.2635 8.4621 11.4135 8.50143 11.5483 8.57436C11.683 8.64729 11.7986 8.75172 11.8855 8.87898C12.0539 8.6642 12.2189 8.49545 12.3688 8.3983C12.5661 8.2631 12.7976 8.18797 13.0358 8.18182ZM13.0358 8.86364C12.9499 8.86364 12.8455 8.90114 12.7293 8.97443C12.3705 9.20625 11.6766 10.4114 11.4223 10.8801C11.388 10.947 11.3363 11.0031 11.2728 11.0425C11.2093 11.0818 11.1364 11.1029 11.0619 11.1034C10.8025 11.1034 10.5987 10.8426 11.0383 10.5102C11.6968 10.0108 11.4661 9.19432 11.1512 9.14489C11.1378 9.14268 11.1243 9.14154 11.1107 9.14148C10.8244 9.14148 10.6981 9.64091 10.6981 9.64091C10.6981 9.64091 10.3276 10.5818 9.69263 11.2261C9.056 11.8687 9.02232 12.3852 9.48716 13.0722C9.80211 13.5409 10.4084 13.6824 11.0282 13.6824C11.6716 13.6824 12.3301 13.529 12.7006 13.4335C12.7175 13.4284 14.9659 12.7858 14.6813 12.2403C14.6324 12.1483 14.5549 12.1108 14.4556 12.1108C14.0547 12.1108 13.3255 12.7142 13.0122 12.7142C12.9415 12.7142 12.8926 12.6852 12.8724 12.6119C12.7377 12.1261 14.9019 11.9216 14.72 11.2193C14.688 11.0949 14.6021 11.0455 14.4775 11.0455C13.9486 11.0455 12.7596 11.9881 12.5103 11.9881C12.4935 11.9881 12.4783 11.983 12.4716 11.971C12.3469 11.7665 12.4143 11.6233 13.2935 11.0847C14.1743 10.546 14.7924 10.2222 14.4387 9.83523C14.4 9.79091 14.3427 9.77045 14.2737 9.77045C13.7381 9.77045 12.4766 10.933 12.4766 10.933C12.4766 10.933 12.1364 11.2909 11.9309 11.2909C11.9078 11.292 11.8848 11.2864 11.8646 11.275C11.8444 11.2636 11.8277 11.2466 11.8164 11.2261C11.6699 10.9773 13.1722 9.825 13.2564 9.34943C13.3137 9.02557 13.216 8.86364 13.0358 8.86364Z" fill="var(--fill-0, #FF9D0B)"/>
<path id="Vector_9" d="M9.48716 13.0722C9.024 12.3835 9.056 11.867 9.69263 11.2244C10.3276 10.5818 10.6981 9.6392 10.6981 9.6392C10.6981 9.6392 10.8362 9.09375 11.1528 9.14489C11.4661 9.19602 11.6968 10.0108 11.0383 10.5102C10.3781 11.0097 11.1697 11.3489 11.4223 10.8801C11.6766 10.4114 12.3705 9.20625 12.7293 8.97443C13.088 8.74432 13.3423 8.87216 13.2564 9.34943C13.1722 9.825 11.6699 10.9773 11.8164 11.2244C11.9613 11.475 12.4766 10.933 12.4766 10.933C12.4766 10.933 14.0901 9.4483 14.4404 9.83523C14.7907 10.2222 14.1743 10.546 13.2952 11.0847C12.4143 11.6233 12.3469 11.7665 12.4699 11.971C12.5962 12.1756 14.5381 10.517 14.72 11.221C14.9019 11.9216 12.7394 12.1244 12.8724 12.6102C13.0072 13.096 14.3966 11.6932 14.6813 12.2386C14.9659 12.7858 12.7192 13.4284 12.7006 13.4335C11.9747 13.6244 10.1305 14.0284 9.48716 13.0722Z" fill="var(--fill-0, #FFD21E)"/>
</g>
<defs>
<clipPath id="clip0_0_1065">
<rect width="16" height="15" fill="white"/>
</clipPath>
</defs>
</svg>
